<?xml version="1.0" encoding="utf-8"?>
<!-- Generator: Adobe Illustrator 27.7.0, SVG Export Plug-In . SVG Version: 6.00 Build 0)  -->
<svg version="1.1" id="Camada_1" xmlns="http://www.w3.org/2000/svg" xmlns:xlink="http://www.w3.org/1999/xlink" x="0px" y="0px"
	 viewBox="0 0 1296.6 406.7" style="enable-background:new 0 0 1296.6 406.7;" xml:space="preserve">
<style type="text/css">
	.st0{fill:#FFFFFF;}
	.st1{fill:#30A168;}
	.st2{fill:none;stroke:#FECC2D;stroke-width:10;stroke-linecap:round;stroke-miterlimit:10;}
	.st3{fill:#FECC2D;}
</style>
<g id="nota_v2">
	<path id="bg_00000183943262768275415320000015544879225161266334_" class="st0" d="M105.2,329.2c-10.1-3.2-49.5-20-43.2-85.9
		c6.4-67.3,53.3-121.2,53.3-121.2s36.9-52.7,76.5-60.5s124.3,5.6,124.3,5.6s22.6,5.7,28.5,10.5c6.8,5.5,17.7,23.1,9.7,39.2
		c-6,12.1-18,10.7-18,10.7l-69.6-1.6c0,0-41.1,52-46.1,86s-3,41.1-3,41.1l65.3,2.6c0,0,16.9-1.8,14.4,39.5
		c-2.1,34.9-13.8,39.1-40.7,40.5c-24.7,1.3-52.4,2.5-76.1,0.4C156.8,333.9,123.2,335,105.2,329.2z"/>
	<path class="st1" d="M220.6,277c0,0,11.7,60.1,49,57.4c30.9-2.2,27.9-42.8,27.9-42.8s1.6-33.6-14.6-36.1
		c-13.4-2-25.4,22.1-25.4,22.1L220.6,277z"/>
	<path class="st1" d="M285.1,105.8l36.5-37.1c0,0,20.1-0.2,31.8,22.8c9.1,18-1.7,36.2-15.4,36.2c-17.1,0-17.1-21.1-17.1-21.1
		L285.1,105.8z"/>
	<path id="contorno_00000064332496994005130780000003628744834062226095_" class="st1" d="M354.1,88.2c-5.3-11.6-16.9-17.9-25.6-21
		l0.1-0.1l-1.3-0.4c-3.1-1.1-5.7-1.7-7.4-2.1c-25.5-6.5-98.4-14.4-125-8.3c-25.7,5.9-41.1,15.3-75.8,55.7
		c-31.3,36.5-62.6,94.3-61.7,141.3c1.2,64.1,39.2,77.5,46.8,79.5c14.7,3.9,68.4,7.7,110.5,7.7c17.2,0,32.5-0.6,42.4-2.2l10.7-1.7
		c0.4,0,0.8,0,1.1,0h0.1c12.6-0.1,22-8,26.9-22.9c3.6-10.9,3.7-21.6,3.7-22c0.1-3.9,0.4-38.2-16.3-38.7c-0.2,0-0.4,0-0.5,0
		c-0.3,0-0.6,0-0.9,0l-61.7-1.2c-2.6-50.4,27.3-95.4,40.9-113.1c2.6-3.4,5.4-6.8,8.2-10.3l66.7,1.3l0,0c0.1,0,0.2,0,0.3,0
		c4.4,0,13-2.8,18.1-10.6C358.3,114,361.3,104,354.1,88.2z M283,257.6c0.1,0,0.3,0,0.4,0c10.7,0.3,12.4,24.9,12.2,34.4
		c0,0.4-0.3,40.6-26.4,40.7h-0.1c-6.5,0-12.8-2.6-17.8-5.5c-4.8-3.8-11.6-10.6-17.8-22.5c-3.6-6.9-6.7-15.8-9.1-25.9
		c7.2-0.2,22.8,0,33.6,0.2h1.4l0.6-1.2C259.9,277.6,269.6,257.6,283,257.6z M272.4,256.6c-8.3,5.1-13.9,14.8-15.7,18.2
		c-5.7-0.1-25.1-0.5-33.3-0.2c-0.8-3.9-1.5-7.9-2.1-12.1c-0.3-2.3-0.6-4.6-0.8-6.9L272.4,256.6z M255.3,134.5
		c-15.1,19.7-49.5,71.7-41.4,129c2.5,17.7,7.1,33.5,12.9,44.6c6.3,12.1,13.3,19.5,18.7,24c-39.4,2.9-121.4-1.8-139.3-6.5
		C99.5,323.8,66,312,65,253.3c-0.8-45,29.5-100.9,59.9-136.3c35.5-41.3,49.7-48.2,71.8-53.3c6.5-1.5,15.8-2.1,26.5-2.1
		c29.3,0,69,4.7,89.7,9.1l-1.2,2.1C299.5,84.7,273.8,110.4,255.3,134.5z M272.9,124.8c4.9-5.7,9.9-11.4,14.9-16.7l30.5,0.7
		c0.4,5.3,2.3,12.5,7,17.1L272.9,124.8z M351.1,117.3c-4,6.1-11.2,8.8-14.8,8.7c-13.7-0.4-13.9-18.6-13.9-19.3v-2l-30.8-0.7
		c10.3-11,19.8-20.4,25.8-26.2c2.1-1.4,5.7-3.4,9.2-3.4c4.8,0,9.3,1.4,11.8,2.4c4.8,3.2,9.3,7.5,11.9,13.2
		C355.3,101,355.6,110.5,351.1,117.3z"/>
	<g id="tracinhos_00000021824203352372148250000007790049626284565899_">
		<line class="st2" x1="194.9" y1="77.7" x2="269.6" y2="81.9"/>
		<line class="st2" x1="173.1" y1="97.8" x2="250.3" y2="100.4"/>
		<line class="st2" x1="152" y1="119.7" x2="231.6" y2="122.2"/>
		<line class="st2" x1="89.3" y1="234.6" x2="178.2" y2="237.1"/>
		<line class="st2" x1="87.8" y1="258" x2="183.2" y2="259.6"/>
		<line class="st2" x1="93.7" y1="281.4" x2="185.9" y2="283.9"/>
		<line class="st2" x1="122.1" y1="304.1" x2="197.6" y2="306.2"/>
	</g>
	<path id="trevo" class="st1" d="M198.9,177.3c3.6-1.4,6.4-3.8,7.5-6.6c2-5-2.2-9.4-9.3-10c-0.7-0.1-1.4-0.1-2-0.1l0,0l0,0
		c-1,0-2,0.1-2.9,0.3c-2.6,0.3-6.4,1.1-10.4,2.5c3.6-2.5,6.2-5.4,7.8-7.4c0.6-0.7,1.1-1.4,1.6-2.1l0,0l0,0c0.3-0.5,0.6-1,0.8-1.6
		c2.4-5.7-0.6-10.6-6.6-11.1c-3.4-0.3-7,0.9-10,3c-1-2.4-3.4-4.1-6.8-4.3c-6-0.5-13,3.7-15.6,9.3c-0.7,1.5-1,2.9-1,4.3
		c-0.1,1.7,0,4.2,0.9,6.8c-2.5-2.1-5.6-3.4-7.8-4.2c-0.8-0.3-1.6-0.6-2.5-0.7l0,0l0,0c-0.6-0.1-1.3-0.2-1.9-0.3
		c-7.2-0.6-14.9,2.9-17.3,7.9c-1.3,2.8-0.7,5.4,1.5,7.3c-3.7,1.4-6.7,3.8-8.1,6.7c-2.4,5.1,1.6,9.8,9,10.3c1.9,0.2,3.9,0,5.8-0.4
		c2-0.3,5-1,8.3-2.1c-2.8,2.2-4.9,4.6-6.3,6.3c-0.6,0.7-1.2,1.5-1.7,2.3l0,0l0,0c-0.3,0.5-0.6,1.1-0.9,1.7
		c-2.8,6.1,0.1,11.6,6.5,12.1c3.6,0.3,7.4-1,10.6-3.3c1,2.6,3.5,4.4,7.1,4.7c6.4,0.5,13.6-4.1,16.2-10.3c0.7-1.6,1-3.1,0.9-4.5
		c0.1-1.6,0-3.8-0.7-6.2c2.4,2.1,5.3,3.4,7.2,4.2c1.4,0.6,3.1,1.1,5,1.2c7.3,0.6,15-3.1,17-8.3C201.9,181.9,201.1,179.2,198.9,177.3
		z"/>
</g>
<g>
	<path class="st1" d="M479.7,168.8h-17l-51.1-77.4v77.4h-17V65.1h17l51.1,77.2V65.1h17V168.8z"/>
	<path class="st1" d="M522.7,163.1c-8.1-4.5-14.5-10.8-19.2-18.9c-4.7-8.1-7.1-17.2-7.1-27.4s2.4-19.2,7.1-27.3s11.1-14.3,19.2-18.9
		c8.1-4.5,17-6.8,26.6-6.8c9.7,0,18.7,2.3,26.8,6.8s14.5,10.8,19.2,18.9s7,17.1,7,27.3s-2.3,19.3-7,27.4
		c-4.7,8.1-11.1,14.4-19.2,18.9c-8.1,4.5-17,6.8-26.8,6.8C539.7,169.9,530.8,167.6,522.7,163.1z M567.7,150.4
		c5.4-3.1,9.6-7.6,12.6-13.4c3-5.8,4.5-12.5,4.5-20.2s-1.5-14.4-4.5-20.1c-3-5.8-7.2-10.2-12.6-13.3c-5.4-3.1-11.5-4.6-18.3-4.6
		c-6.9,0-13,1.5-18.3,4.6c-5.4,3.1-9.6,7.5-12.6,13.3s-4.5,12.5-4.5,20.1c0,7.7,1.5,14.4,4.5,20.2s7.2,10.3,12.6,13.4
		c5.4,3.1,11.5,4.7,18.3,4.7C556.2,155.1,562.3,153.6,567.7,150.4z"/>
	<path class="st1" d="M685.9,65.2v13.9h-27.6v89.7h-17V79.1h-27.7V65.2H685.9z"/>
	<path class="st1" d="M765.5,147.7h-43.4l-7.5,21.2h-17.7L734,65.1h19.7l37.1,103.8H773L765.5,147.7z M760.7,133.8l-16.8-48.2
		l-17,48.2H760.7z"/>
</g>
<g>
	<path class="st3" d="M481.4,274.6c-3.2,5.7-8,10.3-14.5,13.7c-6.5,3.4-14.3,5.1-23.7,5.1h-15.8v38.7h-31.9V217.4h47.7
		c9.2,0,17.1,1.6,23.5,4.9c6.5,3.3,11.3,7.8,14.6,13.5c3.3,5.8,4.9,12.4,4.9,19.9C486.2,262.6,484.6,268.9,481.4,274.6z
		 M453.6,255.7c0-8.4-4.5-12.5-13.5-12.5h-12.7V268h12.7C449.1,268,453.6,263.9,453.6,255.7z"/>
	<path class="st3" d="M557.1,332.1l-22.8-42.3h-3.4v42.3H499V217.4h50.3c9.2,0,17,1.6,23.4,4.8s11.2,7.6,14.5,13.2
		c3.3,5.6,4.9,11.9,4.9,18.8c0,7.8-2.1,14.7-6.4,20.6c-4.3,5.9-10.6,10.1-18.8,12.6l25.9,44.7H557.1z M530.9,268h15.8
		c4.3,0,7.6-1,9.8-3.1s3.3-5,3.3-8.9c0-3.7-1.1-6.6-3.3-8.7c-2.2-2.1-5.5-3.2-9.7-3.2H531L530.9,268L530.9,268z"/>
	<path class="st3" d="M638.4,243v18.7H675v24.2h-36.6v20.7h41.5v25.5h-73.4V217.4h73.4V243H638.4z"/>
	<path class="st3" d="M829.6,217.4v114.7h-31.9v-63.3l-21.6,63.3h-26.7l-21.8-63.8v63.8h-31.9V217.4h38.6l28.8,74.5l28.1-74.5H829.6
		z"/>
	<path class="st3" d="M879.7,217.4v114.7h-31.9V217.4H879.7z"/>
	<path class="st3" d="M970.5,313.4h-40.7l-6.2,18.7h-33.5L932,217.4h36.8l41.7,114.7h-33.7L970.5,313.4z M962.6,289l-12.4-37.1
		L938,289H962.6z"/>
	<path class="st3" d="M1097.8,224.7c9.1,4.8,16,11.6,20.9,20.3s7.3,18.6,7.3,29.8c0,11.1-2.5,20.9-7.4,29.6s-11.9,15.5-21,20.4
		s-19.6,7.4-31.5,7.4h-45.4V217.4h45.4C1078.2,217.4,1088.8,219.8,1097.8,224.7z M1085.7,296.3c5.3-5.1,8-12.3,8-21.6
		c0-9.4-2.7-16.7-8-21.9c-5.3-5.2-12.6-7.7-22-7.7h-11.1V304h11.1C1073.1,304,1080.4,301.4,1085.7,296.3z"/>
	<path class="st3" d="M1213,313.4h-40.7l-6.2,18.7h-33.5l41.8-114.7h36.8l41.7,114.7h-33.7L1213,313.4z M1205,289l-12.4-37.1
		l-12.2,37.1H1205z"/>
</g>
</svg>
